<svg xmlns="http://www.w3.org/2000/svg" width="75" height="60" viewBox="0 0 75 60">
  <path id="Path_19" data-name="Path 19" d="M71.25-52.5H22.5a3.75,3.75,0,0,0-3.75,3.75V-37.5A11.25,11.25,0,0,0,7.5-26.25,11.25,11.25,0,0,0,18.75-15,11.25,11.25,0,0,0,30-26.25a11.216,11.216,0,0,0-7.5-10.561V-48.75H71.25V-7.5H35.782c-.069-.11-.121-.23-.193-.337a10.755,10.755,0,0,0-9.012-4.583c-3.257,0-4.075,1.171-7.827,1.171s-4.564-1.17-7.827-1.17A10.752,10.752,0,0,0,1.911-7.836,11.191,11.191,0,0,0,0-1.562V2.812A4.688,4.688,0,0,0,4.687,7.5H32.812A4.688,4.688,0,0,0,37.5,2.812V-1.562a11.228,11.228,0,0,0-.239-2.188H71.25A3.75,3.75,0,0,0,75-7.5V-48.75A3.75,3.75,0,0,0,71.25-52.5Zm-45,26.25a7.508,7.508,0,0,1-7.5,7.5,7.508,7.508,0,0,1-7.5-7.5,7.508,7.508,0,0,1,7.5-7.5A7.508,7.508,0,0,1,26.25-26.25Zm7.5,29.062a.939.939,0,0,1-.937.937H4.687a.939.939,0,0,1-.937-.937V-1.562a7.455,7.455,0,0,1,1.271-4.18,7.017,7.017,0,0,1,5.9-2.927c2.555,0,3.514,1.17,7.827,1.17s5.275-1.17,7.827-1.17a7.018,7.018,0,0,1,5.9,2.927,7.455,7.455,0,0,1,1.271,4.18Zm5.932-37.419a2.811,2.811,0,0,0-3.977,0l-2.987,2.987a14.834,14.834,0,0,1,.962,4.341l4.014-4.014,7.387,7.386a2.8,2.8,0,0,0,1.989.823,2.8,2.8,0,0,0,1.989-.823l6.91-6.91,3.9,3.9a2.228,2.228,0,0,0,1.594.672,2.275,2.275,0,0,0,2.293-2.282v-11.2a1.518,1.518,0,0,0-1.518-1.518h-11.2a2.277,2.277,0,0,0-1.61,3.887l3.9,3.9L47.071-27.22ZM60-37.5v5.412L54.588-37.5Z" transform="translate(0 52.5)" fill="#ff9300"/>
</svg>
