<svg xmlns="http://www.w3.org/2000/svg" width="60" height="60" viewBox="0 0 60 60">
  <path id="Path_17" data-name="Path 17" d="M58.1-18.75h.586A15.329,15.329,0,0,0,60-24.375a13.043,13.043,0,0,0-4.424-9.751A14.909,14.909,0,0,0,41.25-45c-.425,0-.826.09-1.243.125A13.1,13.1,0,0,0,28.125-52.5a13.1,13.1,0,0,0-11.882,7.625C15.826-44.91,15.423-45,15-45A15.005,15.005,0,0,0,0-30,14.793,14.793,0,0,0,5.217-18.75H1.9A1.868,1.868,0,0,0,.007-16.777,22.446,22.446,0,0,0,15,2.425V3.75A3.774,3.774,0,0,0,18.769,7.5H41.3A3.7,3.7,0,0,0,45,3.75V2.4A22.524,22.524,0,0,0,59.993-16.777,1.868,1.868,0,0,0,58.1-18.75ZM56.25-24.375a10.715,10.715,0,0,1-1.958,5.625H39.458A10.724,10.724,0,0,1,37.5-24.375a9.378,9.378,0,0,1,9.375-9.375A9.378,9.378,0,0,1,56.25-24.375ZM3.75-30c0-4.117,2.7-12.279,15-11.25,3.266-7.468,7.65-7.5,9.375-7.5,1.662,0,6.094,0,9.375,7.5,4.11-.343,8.929-.129,12.422,4.143a15.608,15.608,0,0,0-3.047-.393A13.15,13.15,0,0,0,33.75-24.375a15.349,15.349,0,0,0,1.3,5.625H30V-40.312a.938.938,0,0,0-.937-.937H27.187a.938.938,0,0,0-.937.937V-21.4L13.242-34.41a1.077,1.077,0,0,0-.663-.274,1.076,1.076,0,0,0-.663.274l-1.33,1.323a1.077,1.077,0,0,0-.274.663,1.077,1.077,0,0,0,.274.663L23.594-18.754H15A11.273,11.273,0,0,1,3.75-30ZM43.8-1.132,41.25-.247v4H18.75V-.234l-2.488-.88A18.783,18.783,0,0,1,4.053-15H55.946A18.8,18.8,0,0,1,43.8-1.132Z" transform="translate(0 52.5)" fill="#ff9300"/>
</svg>
